<svg width="335" height="88" viewBox="0 0 335 88" fill="none" xmlns="http://www.w3.org/2000/svg">
<g clip-path="url(#clip0_302_1189)">
<path d="M35.7439 54.8549C35.7439 57.2314 34.837 59.3139 33.0231 61.1022C31.2229 62.8846 29.1244 63.7835 26.7224 63.7835C24.6231 63.7835 22.6682 62.8859 20.8577 61.0908L16.9578 57.2395C15.9085 61.6531 13.1324 63.8344 8.62939 63.7835C7.12608 63.7593 5.64677 63.4063 4.29739 62.7497C1.42483 61.3492 0.00268555 58.8488 0.00268555 55.2559V39.3671C0.00268555 33.2559 2.46721 28.9824 7.39627 26.5465C9.8265 25.3408 12.2992 24.7373 14.7898 24.7373H18.4892C25.6899 24.7373 30.7184 26.9683 33.5747 31.4302C34.7585 33.2517 35.4644 35.495 35.6925 38.1601C35.6925 41.3773 34.4131 43.697 31.8465 45.0924C31.0274 45.5087 30.418 45.8168 30.0258 46.018L33.0256 49.0328C34.8412 50.8576 35.7482 52.7983 35.7465 54.8549M14.6664 38.1474C14.7731 39.5555 15.4855 40.2519 16.7919 40.2519H18.9251C20.2302 40.2519 20.9426 39.5555 21.0583 38.1474C20.9426 36.752 20.2315 36.0543 18.9251 36.0543H16.7958C15.4893 36.0543 14.777 36.752 14.6703 38.1474" fill="#1D1D1B"/>
<path d="M91.2524 63.7835C83.0453 63.7835 77.2946 60.5302 74.0002 54.0235C72.618 51.2863 71.8066 48.0397 71.5327 44.2598C71.8066 40.4811 72.618 37.2358 74.0002 34.5011C77.2894 27.9987 83.0401 24.7441 91.2524 24.7373H102.356C105.011 24.7373 107.096 25.5292 108.614 27.1385C109.995 28.5988 110.779 30.6511 110.984 33.2801C110.508 38.9669 107.632 41.8102 102.356 41.8102H91.2524C89.7479 41.8102 88.9224 42.6276 88.7874 44.2496C88.916 45.8741 89.7479 46.6915 91.2524 46.6915H102.356C105.013 46.6915 107.099 47.4914 108.614 49.0914C109.995 50.5529 110.779 52.604 110.984 55.2317C110.508 60.9295 107.632 63.7809 102.356 63.786L91.2524 63.7835Z" fill="#1D1D1B"/>
<path d="M150.294 54.8549C150.294 57.228 149.404 59.3109 147.594 61.1022C145.783 62.8936 143.693 63.7835 141.282 63.7835C139.183 63.7835 137.218 62.8846 135.418 61.0908L129.889 55.671C129.275 56.1275 128.617 56.5236 127.926 56.8537C127.002 61.5313 124.197 63.8382 119.485 63.7835C117.983 63.7515 116.505 63.3988 115.153 62.7497C112.283 61.3569 110.863 58.8488 110.863 55.2699V33.2929C110.863 28.0517 113.737 25.1999 119.485 24.7373C122.156 24.9385 124.215 25.7176 125.704 27.085C127.302 28.5733 128.115 30.6371 128.115 33.2661V33.4125L134.181 27.4211C135.996 25.6387 137.946 24.7399 140.045 24.7399C142.444 24.7399 144.555 25.64 146.357 27.4377C148.158 29.2353 149.078 31.2966 149.078 33.6761C149.078 35.7284 148.178 37.6572 146.357 39.4944L142.165 43.6703L147.585 49.0328C149.399 50.8305 150.285 52.7631 150.285 54.8549" fill="#1D1D1B"/>
<path d="M63.3959 27.1779C69.9768 30.4355 73.263 36.1294 73.2544 44.2598C73.2458 52.3901 69.9596 58.0849 63.3959 61.3441C60.6326 62.7128 57.3524 63.5301 53.5347 63.7835C49.7171 63.5289 46.4395 62.7128 43.6775 61.3441C37.1051 58.0857 33.8198 52.3909 33.8215 44.2598C33.8232 36.1286 37.1086 30.4346 43.6775 27.1779C46.4395 25.8106 49.7209 25.0072 53.5347 24.7373C57.3537 25.0072 60.6326 25.8106 63.3959 27.1779ZM56.6786 44.247C56.6786 41.5734 55.6345 41.3774 53.563 41.2169C51.4916 41.3774 50.477 42.3831 50.477 44.247C50.477 46.1109 51.4941 47.104 53.563 47.2644C55.6345 47.104 56.6786 46.9155 56.6786 44.247Z" fill="#1D1D1B"/>
<path d="M234.617 25.6234C233.314 25.0412 231.902 24.7375 230.473 24.7322C227.207 24.7322 224.798 26.3707 223.226 29.6134L220.105 35.9512L217.099 29.6605C215.527 26.3885 213.104 24.7385 209.867 24.7385C208.426 24.7498 207.006 25.08 205.71 25.7049C202.367 27.528 200.686 29.9814 200.686 33.0267C200.701 34.4202 201.04 35.7915 201.676 37.0346L204.368 42.6008C205.71 42.2787 207.068 42.0495 208.404 42.0495C215.949 42.0495 222.884 49.3447 224.927 52.1583L225.93 53.5422H224.208C219.129 53.5422 214.973 55.2979 211.288 56.9186L212.224 58.85C213.807 62.1347 216.371 63.7796 219.915 63.7847C223.761 63.7847 226.497 62.108 228.097 58.7583L238.658 36.8882C239.309 35.5196 239.649 34.2057 239.649 32.9414C239.649 29.8859 237.955 27.444 234.612 25.6208M334.007 51.6325L323.456 29.7624C321.846 26.4127 319.11 24.7347 315.278 24.7347C311.713 24.7347 309.156 26.3898 307.583 29.6694L300.924 43.4398C300.597 40.0227 299.826 37.0308 298.537 34.4985C295.265 27.9978 289.516 24.7441 281.293 24.7373H271.447C267.333 24.7373 264.459 26.3758 262.807 29.6312C261.994 31.2549 261.588 32.8782 261.589 34.501V54.0299C261.589 58.0925 263.212 60.9329 266.516 62.5701C268.156 63.3748 269.796 63.7898 271.447 63.7898H281.293C287.902 63.7898 292.885 61.6446 296.31 57.4343C296.892 59.5927 298.482 61.3848 301.078 62.8108C302.367 63.4439 303.784 63.7787 305.223 63.7898C308.445 63.7898 310.855 62.1271 312.467 58.8424L313.696 56.3215H317.297L318.571 58.9111C320.196 62.1551 322.608 63.7898 325.829 63.7898C327.258 63.7865 328.67 63.4855 329.974 62.9062C333.317 61.0806 334.997 58.6565 334.997 55.5856C334.997 54.3252 334.673 53.0101 334.011 51.6389M281.33 51.29C280.37 51.2098 279.881 50.7413 279.881 49.8819V38.6248C279.881 37.7539 280.37 37.2982 281.33 37.2243C282.278 37.5591 282.745 39.8979 282.745 44.2495C282.745 48.6012 282.272 50.9412 281.33 51.2888M314.141 46.4916L315.769 39.2473L317.556 46.4916H314.141ZM250.235 24.7398C247.216 24.941 244.851 25.8402 243.14 27.4376C241.296 29.1258 240.374 31.4811 240.375 34.5036V54.0299C240.375 57.0455 241.297 59.4051 243.14 61.1086C244.846 62.6898 247.216 63.5899 250.235 63.7898C253.254 63.5899 255.628 62.6898 257.331 61.1086C259.173 59.4068 260.094 57.0472 260.096 54.0299V34.501C260.096 31.4837 259.174 29.1284 257.331 27.4351C255.628 25.8373 253.254 24.9384 250.235 24.7373" fill="#1D1D1B"/>
<path d="M202.65 60.5001C205.182 58.7024 207.89 57.2676 210.622 56.0619C214.577 54.3037 218.761 52.5073 223.995 52.5073C221.757 49.4237 215.23 43.002 208.581 43.002C202.924 43.002 197.009 46.6495 192.45 49.9877C195.958 53.9141 198.694 56.8398 202.65 60.5001Z" fill="#D90912"/>
<path d="M199.128 88C202.419 81.1874 205.113 74.8191 209.286 69.4973C189.256 53.1501 167.776 27.7534 167.776 10.4449C167.776 6.27407 170.325 3.60683 173.709 3.60683C179.409 3.60683 180.617 7.62871 180.617 11.3412C180.617 15.0537 179.166 25.8627 176.825 30.3035C178.639 33.4863 185.054 42.2634 187.454 44.8925C187.672 44.5564 187.983 44.1019 187.983 44.1019C190.515 40.3843 199.332 31.6148 199.332 19.8306C199.332 7.21366 188.201 0 173.505 0C159.179 0 149.024 8.20544 149.024 20.9025C149.024 43.9809 176.606 70.0868 199.128 87.9975" fill="#D90912"/>
<path d="M172.884 67.7417C171.53 69.6043 165.232 78.2515 165.232 83.3874C165.421 85.0094 166.451 86.1514 167.955 86.1514C170.838 86.0419 178.058 82.4771 182.214 76.2412C181.225 75.4633 175.727 70.3542 172.884 67.7417Z" fill="#D90912"/>
<path d="M158.515 50.7783C148.808 62.1768 148.999 64.8988 148.999 69.5496C148.999 77.475 158.315 84.2863 164.775 85.5913C163.936 85.0667 163.203 84.2379 163.203 82.374C163.203 78.9136 167.551 70.8164 171.086 65.6652C168.323 62.7828 161.62 55.1414 158.518 50.7834" fill="#D90912"/>
</g>
<defs>
<clipPath id="clip0_302_1189">
<rect width="335" height="88" fill="white"/>
</clipPath>
</defs>
</svg>
