<svg width="1188" height="335" viewBox="0 0 1188 335" fill="none" xmlns="http://www.w3.org/2000/svg">
<path d="M2.016 66.192C1.632 66.192 1.32 66.104 1.08 65.928C0.856 65.752 0.72 65.52 0.672 65.232C0.624 64.928 0.68 64.592 0.84 64.224L7.176 50.184C7.384 49.72 7.632 49.392 7.92 49.2C8.224 48.992 8.568 48.888 8.952 48.888C9.32 48.888 9.648 48.992 9.936 49.2C10.24 49.392 10.496 49.72 10.704 50.184L17.064 64.224C17.24 64.592 17.304 64.928 17.256 65.232C17.208 65.536 17.072 65.776 16.848 65.952C16.624 66.112 16.328 66.192 15.96 66.192C15.512 66.192 15.16 66.088 14.904 65.88C14.664 65.656 14.448 65.32 14.256 64.872L12.696 61.248L13.992 62.088H3.864L5.16 61.248L3.624 64.872C3.416 65.336 3.2 65.672 2.976 65.88C2.752 66.088 2.432 66.192 2.016 66.192ZM8.904 52.416L5.544 60.408L4.92 59.64H12.936L12.336 60.408L8.952 52.416H8.904ZM23.5279 66.24C22.8399 66.24 22.1119 66.168 21.3439 66.024C20.5759 65.88 19.8879 65.632 19.2799 65.28C19.0239 65.12 18.8399 64.936 18.7279 64.728C18.6319 64.504 18.5919 64.288 18.6079 64.08C18.6399 63.856 18.7199 63.664 18.8479 63.504C18.9919 63.344 19.1679 63.24 19.3759 63.192C19.5999 63.144 19.8399 63.184 20.0959 63.312C20.7359 63.616 21.3359 63.832 21.8959 63.96C22.4559 64.072 23.0079 64.128 23.5519 64.128C24.3199 64.128 24.8879 64 25.2559 63.744C25.6399 63.472 25.8319 63.12 25.8319 62.688C25.8319 62.32 25.7039 62.04 25.4479 61.848C25.2079 61.64 24.8399 61.488 24.3439 61.392L21.9439 60.936C20.9519 60.744 20.1919 60.384 19.6639 59.856C19.1519 59.312 18.8959 58.616 18.8959 57.768C18.8959 57 19.1039 56.336 19.5199 55.776C19.9519 55.216 20.5439 54.784 21.2959 54.48C22.0479 54.176 22.9119 54.024 23.8879 54.024C24.5919 54.024 25.2479 54.104 25.8559 54.264C26.4799 54.408 27.0799 54.64 27.6559 54.96C27.8959 55.088 28.0559 55.256 28.1359 55.464C28.2319 55.672 28.2559 55.888 28.2079 56.112C28.1599 56.32 28.0639 56.512 27.9199 56.688C27.7759 56.848 27.5919 56.952 27.3679 57C27.1599 57.032 26.9199 56.984 26.6479 56.856C26.1519 56.6 25.6719 56.416 25.2079 56.304C24.7599 56.192 24.3279 56.136 23.9119 56.136C23.1279 56.136 22.5439 56.272 22.1599 56.544C21.7919 56.816 21.6079 57.176 21.6079 57.624C21.6079 57.96 21.7199 58.24 21.9439 58.464C22.1679 58.688 22.5119 58.84 22.9759 58.92L25.3759 59.376C26.4159 59.568 27.1999 59.92 27.7279 60.432C28.2719 60.944 28.5439 61.632 28.5439 62.496C28.5439 63.664 28.0879 64.584 27.1759 65.256C26.2639 65.912 25.0479 66.24 23.5279 66.24ZM36.3026 66.24C35.0866 66.24 34.0306 65.992 33.1346 65.496C32.2386 65 31.5426 64.296 31.0466 63.384C30.5506 62.456 30.3026 61.368 30.3026 60.12C30.3026 59.176 30.4386 58.336 30.7106 57.6C30.9986 56.848 31.4066 56.208 31.9346 55.68C32.4626 55.136 33.0946 54.728 33.8306 54.456C34.5666 54.168 35.3906 54.024 36.3026 54.024C37.5186 54.024 38.5746 54.272 39.4706 54.768C40.3666 55.264 41.0626 55.968 41.5586 56.88C42.0546 57.792 42.3026 58.872 42.3026 60.12C42.3026 61.064 42.1586 61.912 41.8706 62.664C41.5986 63.416 41.1986 64.064 40.6706 64.608C40.1426 65.136 39.5106 65.544 38.7746 65.832C38.0386 66.104 37.2146 66.24 36.3026 66.24ZM36.3026 63.96C36.8946 63.96 37.4146 63.816 37.8626 63.528C38.3106 63.24 38.6546 62.816 38.8946 62.256C39.1506 61.68 39.2786 60.968 39.2786 60.12C39.2786 58.84 39.0066 57.888 38.4626 57.264C37.9186 56.624 37.1986 56.304 36.3026 56.304C35.7106 56.304 35.1906 56.448 34.7426 56.736C34.2946 57.008 33.9426 57.432 33.6866 58.008C33.4466 58.568 33.3266 59.272 33.3266 60.12C33.3266 61.384 33.5986 62.344 34.1426 63C34.6866 63.64 35.4066 63.96 36.3026 63.96ZM50.2028 66.24C48.9708 66.24 47.8988 65.992 46.9868 65.496C46.0748 64.984 45.3708 64.264 44.8748 63.336C44.3788 62.408 44.1308 61.32 44.1308 60.072C44.1308 59.128 44.2668 58.288 44.5388 57.552C44.8268 56.8 45.2348 56.168 45.7628 55.656C46.2908 55.128 46.9308 54.728 47.6828 54.456C48.4348 54.168 49.2748 54.024 50.2028 54.024C50.7308 54.024 51.2988 54.096 51.9068 54.24C52.5308 54.384 53.1148 54.624 53.6588 54.96C53.9148 55.12 54.0828 55.312 54.1628 55.536C54.2428 55.76 54.2588 55.992 54.2108 56.232C54.1628 56.456 54.0588 56.656 53.8988 56.832C53.7548 56.992 53.5708 57.096 53.3468 57.144C53.1228 57.176 52.8748 57.12 52.6028 56.976C52.2508 56.768 51.8908 56.616 51.5228 56.52C51.1548 56.408 50.8028 56.352 50.4668 56.352C49.9388 56.352 49.4748 56.44 49.0748 56.616C48.6748 56.776 48.3308 57.016 48.0428 57.336C47.7708 57.64 47.5628 58.024 47.4188 58.488C47.2748 58.952 47.2028 59.488 47.2028 60.096C47.2028 61.28 47.4828 62.216 48.0428 62.904C48.6188 63.576 49.4268 63.912 50.4668 63.912C50.8028 63.912 51.1468 63.864 51.4988 63.768C51.8668 63.672 52.2348 63.52 52.6028 63.312C52.8748 63.168 53.1148 63.12 53.3228 63.168C53.5468 63.216 53.7308 63.328 53.8748 63.504C54.0188 63.664 54.1068 63.864 54.1388 64.104C54.1708 64.328 54.1388 64.552 54.0428 64.776C53.9628 65 53.8028 65.184 53.5628 65.328C53.0348 65.648 52.4748 65.88 51.8828 66.024C51.2908 66.168 50.7308 66.24 50.2028 66.24ZM57.5871 66.168C57.1071 66.168 56.7391 66.024 56.4831 65.736C56.2271 65.448 56.0991 65.048 56.0991 64.536V55.728C56.0991 55.2 56.2271 54.8 56.4831 54.528C56.7391 54.24 57.1071 54.096 57.5871 54.096C58.0671 54.096 58.4351 54.24 58.6911 54.528C58.9631 54.8 59.0991 55.2 59.0991 55.728V64.536C59.0991 65.048 58.9711 65.448 58.7151 65.736C58.4591 66.024 58.0831 66.168 57.5871 66.168ZM57.5871 51.864C57.0271 51.864 56.5871 51.728 56.2671 51.456C55.9631 51.168 55.8111 50.776 55.8111 50.28C55.8111 49.768 55.9631 49.376 56.2671 49.104C56.5871 48.832 57.0271 48.696 57.5871 48.696C58.1631 48.696 58.6031 48.832 58.9071 49.104C59.2111 49.376 59.3631 49.768 59.3631 50.28C59.3631 50.776 59.2111 51.168 58.9071 51.456C58.6031 51.728 58.1631 51.864 57.5871 51.864ZM66.0803 66.24C65.2323 66.24 64.4723 66.08 63.8003 65.76C63.1443 65.424 62.6243 64.976 62.2402 64.416C61.8723 63.856 61.6883 63.224 61.6883 62.52C61.6883 61.656 61.9123 60.976 62.3603 60.48C62.8083 59.968 63.5363 59.6 64.5443 59.376C65.5523 59.152 66.9043 59.04 68.6003 59.04H69.8003V60.768H68.6243C67.6323 60.768 66.8403 60.816 66.2483 60.912C65.6563 61.008 65.2323 61.176 64.9763 61.416C64.7363 61.64 64.6163 61.96 64.6163 62.376C64.6163 62.904 64.8003 63.336 65.1683 63.672C65.5363 64.008 66.0483 64.176 66.7043 64.176C67.2323 64.176 67.6963 64.056 68.0963 63.816C68.5123 63.56 68.8403 63.216 69.0803 62.784C69.3203 62.352 69.4403 61.856 69.4403 61.296V58.536C69.4403 57.736 69.2643 57.16 68.9123 56.808C68.5603 56.456 67.9683 56.28 67.1363 56.28C66.6723 56.28 66.1683 56.336 65.6243 56.448C65.0963 56.56 64.5363 56.752 63.9443 57.024C63.6403 57.168 63.3683 57.208 63.1283 57.144C62.9043 57.08 62.7283 56.952 62.6003 56.76C62.4723 56.552 62.4083 56.328 62.4083 56.088C62.4083 55.848 62.4723 55.616 62.6003 55.392C62.7283 55.152 62.9443 54.976 63.2483 54.864C63.9843 54.56 64.6883 54.344 65.3603 54.216C66.0483 54.088 66.6723 54.024 67.2323 54.024C68.3843 54.024 69.3283 54.2 70.0643 54.552C70.8163 54.904 71.3763 55.44 71.7443 56.16C72.1123 56.864 72.2963 57.776 72.2963 58.896V64.656C72.2963 65.152 72.1763 65.536 71.9363 65.808C71.6963 66.064 71.3523 66.192 70.9043 66.192C70.4563 66.192 70.1043 66.064 69.8483 65.808C69.6083 65.536 69.4883 65.152 69.4883 64.656V63.504H69.6803C69.5683 64.064 69.3443 64.552 69.0083 64.968C68.6883 65.368 68.2803 65.68 67.7843 65.904C67.2883 66.128 66.7203 66.24 66.0803 66.24ZM80.7653 66.24C79.5333 66.24 78.4613 65.992 77.5493 65.496C76.6373 64.984 75.9333 64.264 75.4373 63.336C74.9413 62.408 74.6933 61.32 74.6933 60.072C74.6933 59.128 74.8293 58.288 75.1013 57.552C75.3893 56.8 75.7973 56.168 76.3253 55.656C76.8533 55.128 77.4933 54.728 78.2453 54.456C78.9973 54.168 79.8373 54.024 80.7653 54.024C81.2933 54.024 81.8613 54.096 82.4693 54.24C83.0933 54.384 83.6773 54.624 84.2213 54.96C84.4773 55.12 84.6453 55.312 84.7253 55.536C84.8053 55.76 84.8213 55.992 84.7733 56.232C84.7253 56.456 84.6213 56.656 84.4613 56.832C84.3173 56.992 84.1333 57.096 83.9093 57.144C83.6853 57.176 83.4373 57.12 83.1653 56.976C82.8133 56.768 82.4533 56.616 82.0853 56.52C81.7173 56.408 81.3653 56.352 81.0293 56.352C80.5013 56.352 80.0373 56.44 79.6373 56.616C79.2373 56.776 78.8933 57.016 78.6053 57.336C78.3333 57.64 78.1253 58.024 77.9813 58.488C77.8373 58.952 77.7653 59.488 77.7653 60.096C77.7653 61.28 78.0453 62.216 78.6053 62.904C79.1813 63.576 79.9893 63.912 81.0293 63.912C81.3653 63.912 81.7093 63.864 82.0613 63.768C82.4293 63.672 82.7973 63.52 83.1653 63.312C83.4373 63.168 83.6773 63.12 83.8853 63.168C84.1093 63.216 84.2933 63.328 84.4373 63.504C84.5813 63.664 84.6693 63.864 84.7013 64.104C84.7333 64.328 84.7013 64.552 84.6053 64.776C84.5253 65 84.3653 65.184 84.1253 65.328C83.5973 65.648 83.0373 65.88 82.4453 66.024C81.8533 66.168 81.2933 66.24 80.7653 66.24ZM88.1496 66.168C87.6696 66.168 87.3016 66.024 87.0456 65.736C86.7896 65.448 86.6616 65.048 86.6616 64.536V55.728C86.6616 55.2 86.7896 54.8 87.0456 54.528C87.3016 54.24 87.6696 54.096 88.1496 54.096C88.6296 54.096 88.9976 54.24 89.2536 54.528C89.5256 54.8 89.6616 55.2 89.6616 55.728V64.536C89.6616 65.048 89.5336 65.448 89.2776 65.736C89.0216 66.024 88.6456 66.168 88.1496 66.168ZM88.1496 51.864C87.5896 51.864 87.1496 51.728 86.8296 51.456C86.5256 51.168 86.3736 50.776 86.3736 50.28C86.3736 49.768 86.5256 49.376 86.8296 49.104C87.1496 48.832 87.5896 48.696 88.1496 48.696C88.7256 48.696 89.1656 48.832 89.4696 49.104C89.7736 49.376 89.9256 49.768 89.9256 50.28C89.9256 50.776 89.7736 51.168 89.4696 51.456C89.1656 51.728 88.7256 51.864 88.1496 51.864ZM98.1308 66.24C96.9148 66.24 95.8588 65.992 94.9628 65.496C94.0668 65 93.3708 64.296 92.8748 63.384C92.3788 62.456 92.1308 61.368 92.1308 60.12C92.1308 59.176 92.2668 58.336 92.5388 57.6C92.8268 56.848 93.2348 56.208 93.7628 55.68C94.2908 55.136 94.9228 54.728 95.6588 54.456C96.3948 54.168 97.2188 54.024 98.1308 54.024C99.3468 54.024 100.403 54.272 101.299 54.768C102.195 55.264 102.891 55.968 103.387 56.88C103.883 57.792 104.131 58.872 104.131 60.12C104.131 61.064 103.987 61.912 103.699 62.664C103.427 63.416 103.027 64.064 102.499 64.608C101.971 65.136 101.339 65.544 100.603 65.832C99.8668 66.104 99.0428 66.24 98.1308 66.24ZM98.1308 63.96C98.7228 63.96 99.2428 63.816 99.6908 63.528C100.139 63.24 100.483 62.816 100.723 62.256C100.979 61.68 101.107 60.968 101.107 60.12C101.107 58.84 100.835 57.888 100.291 57.264C99.7468 56.624 99.0268 56.304 98.1308 56.304C97.5388 56.304 97.0188 56.448 96.5708 56.736C96.1228 57.008 95.7708 57.432 95.5148 58.008C95.2748 58.568 95.1548 59.272 95.1548 60.12C95.1548 61.384 95.4268 62.344 95.9708 63C96.5148 63.64 97.2348 63.96 98.1308 63.96ZM99.2588 52.56C99.0988 52.784 98.9068 52.912 98.6828 52.944C98.4588 52.976 98.2428 52.936 98.0348 52.824C97.8268 52.712 97.6748 52.552 97.5788 52.344C97.4988 52.136 97.5228 51.904 97.6508 51.648L99.4748 48.072C99.6188 47.768 99.8108 47.576 100.051 47.496C100.291 47.4 100.539 47.384 100.795 47.448C101.051 47.512 101.267 47.632 101.443 47.808C101.635 47.984 101.747 48.2 101.779 48.456C101.827 48.696 101.763 48.944 101.587 49.2L99.2588 52.56ZM108.095 66.192C107.615 66.192 107.247 66.064 106.991 65.808C106.735 65.536 106.607 65.152 106.607 64.656V55.584C106.607 55.088 106.735 54.712 106.991 54.456C107.247 54.2 107.607 54.072 108.071 54.072C108.535 54.072 108.895 54.2 109.151 54.456C109.407 54.712 109.535 55.088 109.535 55.584V57.216L109.271 56.616C109.623 55.768 110.167 55.128 110.903 54.696C111.655 54.248 112.503 54.024 113.447 54.024C114.391 54.024 115.167 54.2 115.775 54.552C116.383 54.904 116.839 55.44 117.143 56.16C117.447 56.864 117.599 57.76 117.599 58.848V64.656C117.599 65.152 117.471 65.536 117.215 65.808C116.959 66.064 116.591 66.192 116.111 66.192C115.631 66.192 115.255 66.064 114.983 65.808C114.727 65.536 114.599 65.152 114.599 64.656V58.992C114.599 58.08 114.423 57.416 114.071 57C113.735 56.584 113.207 56.376 112.487 56.376C111.607 56.376 110.903 56.656 110.375 57.216C109.863 57.76 109.607 58.488 109.607 59.4V64.656C109.607 65.68 109.103 66.192 108.095 66.192ZM135.322 66.24C133.562 66.24 132.05 65.888 130.786 65.184C129.538 64.464 128.578 63.456 127.906 62.16C127.234 60.848 126.898 59.304 126.898 57.528C126.898 56.2 127.09 55.008 127.474 53.952C127.858 52.88 128.41 51.968 129.13 51.216C129.85 50.448 130.73 49.864 131.77 49.464C132.826 49.048 134.01 48.84 135.322 48.84C136.202 48.84 137.066 48.952 137.914 49.176C138.762 49.4 139.506 49.72 140.146 50.136C140.482 50.344 140.706 50.6 140.818 50.904C140.93 51.192 140.954 51.48 140.89 51.768C140.826 52.04 140.69 52.272 140.482 52.464C140.29 52.656 140.042 52.768 139.738 52.8C139.45 52.816 139.13 52.712 138.778 52.488C138.282 52.168 137.746 51.936 137.17 51.792C136.594 51.648 136.01 51.576 135.418 51.576C134.282 51.576 133.322 51.808 132.538 52.272C131.754 52.736 131.162 53.408 130.762 54.288C130.362 55.168 130.162 56.248 130.162 57.528C130.162 58.792 130.362 59.872 130.762 60.768C131.162 61.664 131.754 62.344 132.538 62.808C133.322 63.272 134.282 63.504 135.418 63.504C136.026 63.504 136.626 63.432 137.218 63.288C137.81 63.128 138.37 62.888 138.898 62.568C139.25 62.36 139.562 62.272 139.834 62.304C140.122 62.32 140.362 62.416 140.554 62.592C140.746 62.768 140.874 62.992 140.938 63.264C141.002 63.52 140.986 63.792 140.89 64.08C140.794 64.352 140.602 64.592 140.314 64.8C139.674 65.264 138.906 65.624 138.01 65.88C137.13 66.12 136.234 66.24 135.322 66.24ZM144.962 66.168C144.482 66.168 144.114 66.024 143.858 65.736C143.602 65.448 143.474 65.048 143.474 64.536V55.728C143.474 55.2 143.602 54.8 143.858 54.528C144.114 54.24 144.482 54.096 144.962 54.096C145.442 54.096 145.81 54.24 146.066 54.528C146.338 54.8 146.474 55.2 146.474 55.728V64.536C146.474 65.048 146.346 65.448 146.09 65.736C145.834 66.024 145.458 66.168 144.962 66.168ZM144.962 51.864C144.402 51.864 143.962 51.728 143.642 51.456C143.338 51.168 143.186 50.776 143.186 50.28C143.186 49.768 143.338 49.376 143.642 49.104C143.962 48.832 144.402 48.696 144.962 48.696C145.538 48.696 145.978 48.832 146.282 49.104C146.586 49.376 146.738 49.768 146.738 50.28C146.738 50.776 146.586 51.168 146.282 51.456C145.978 51.728 145.538 51.864 144.962 51.864ZM154.343 66.192C153.943 66.192 153.591 66.088 153.287 65.88C152.999 65.672 152.759 65.352 152.567 64.92L148.751 56.064C148.607 55.712 148.551 55.384 148.583 55.08C148.631 54.776 148.775 54.536 149.015 54.36C149.271 54.168 149.615 54.072 150.047 54.072C150.415 54.072 150.711 54.16 150.935 54.336C151.159 54.496 151.359 54.808 151.535 55.272L154.775 63.36H154.055L157.391 55.248C157.567 54.8 157.767 54.496 157.991 54.336C158.231 54.16 158.551 54.072 158.951 54.072C159.303 54.072 159.583 54.168 159.791 54.36C159.999 54.536 160.127 54.776 160.175 55.08C160.223 55.368 160.167 55.688 160.007 56.04L156.119 64.92C155.943 65.352 155.703 65.672 155.399 65.88C155.111 66.088 154.759 66.192 154.343 66.192ZM163.736 66.168C163.256 66.168 162.888 66.024 162.632 65.736C162.376 65.448 162.248 65.048 162.248 64.536V55.728C162.248 55.2 162.376 54.8 162.632 54.528C162.888 54.24 163.256 54.096 163.736 54.096C164.216 54.096 164.584 54.24 164.84 54.528C165.112 54.8 165.248 55.2 165.248 55.728V64.536C165.248 65.048 165.12 65.448 164.864 65.736C164.608 66.024 164.232 66.168 163.736 66.168ZM163.736 51.864C163.176 51.864 162.736 51.728 162.416 51.456C162.112 51.168 161.96 50.776 161.96 50.28C161.96 49.768 162.112 49.376 162.416 49.104C162.736 48.832 163.176 48.696 163.736 48.696C164.312 48.696 164.752 48.832 165.056 49.104C165.36 49.376 165.512 49.768 165.512 50.28C165.512 50.776 165.36 51.168 165.056 51.456C164.752 51.728 164.312 51.864 163.736 51.864ZM172.373 66.24C171.045 66.24 170.045 65.864 169.373 65.112C168.701 64.344 168.365 63.224 168.365 61.752V50.4C168.365 49.904 168.493 49.528 168.749 49.272C169.005 49.016 169.373 48.888 169.853 48.888C170.333 48.888 170.701 49.016 170.957 49.272C171.229 49.528 171.365 49.904 171.365 50.4V61.608C171.365 62.344 171.517 62.888 171.821 63.24C172.141 63.592 172.589 63.768 173.165 63.768C173.293 63.768 173.413 63.768 173.525 63.768C173.637 63.752 173.749 63.736 173.861 63.72C174.085 63.688 174.237 63.752 174.317 63.912C174.397 64.056 174.437 64.36 174.437 64.824C174.437 65.224 174.357 65.536 174.197 65.76C174.037 65.984 173.773 66.12 173.405 66.168C173.245 66.184 173.077 66.2 172.901 66.216C172.725 66.232 172.549 66.24 172.373 66.24Z" fill="#D90912"/>
<path d="M126.757 208.823C126.757 217.87 123.541 225.797 117.108 232.605C110.724 239.39 103.283 242.812 94.7647 242.812C87.3198 242.812 80.3872 239.395 73.9668 232.561L60.1365 217.9C56.4156 234.702 46.5707 243.006 30.6018 242.812C25.2707 242.72 20.0247 241.376 15.2394 238.877C5.05251 233.545 0.00921631 224.027 0.00921631 210.349V149.863C0.00921631 126.599 8.74909 110.331 26.2288 101.058C34.8471 96.4677 43.6159 94.1704 52.4485 94.1704H65.5674C91.103 94.1704 108.935 102.663 119.065 119.649C123.263 126.583 125.766 135.123 126.575 145.269C126.575 157.516 122.038 166.347 112.936 171.659C110.031 173.243 107.87 174.416 106.479 175.182L117.117 186.659C123.556 193.606 126.772 200.994 126.766 208.823M52.0107 145.22C52.3892 150.581 54.9154 153.232 59.5483 153.232H67.1132C71.7416 153.232 74.2678 150.581 74.6782 145.22C74.2678 139.908 71.7461 137.252 67.1132 137.252H59.562C54.9291 137.252 52.4029 139.908 52.0244 145.22" fill="#1D1D1B"/>
<path d="M323.605 242.812C294.5 242.812 274.107 230.427 262.424 205.658C257.522 195.237 254.645 182.879 253.674 168.489C254.645 154.104 257.522 141.75 262.424 131.339C274.089 106.586 294.482 94.1963 323.605 94.1704H362.98C372.396 94.1704 379.792 97.185 385.173 103.311C390.071 108.87 392.852 116.683 393.577 126.691C391.89 148.34 381.691 159.164 362.98 159.164H323.605C318.27 159.164 315.342 162.275 314.864 168.45C315.32 174.634 318.27 177.746 323.605 177.746H362.98C372.404 177.746 379.802 180.791 385.173 186.882C390.071 192.446 392.852 200.254 393.577 210.257C391.89 231.948 381.691 242.802 362.98 242.822L323.605 242.812Z" fill="#1D1D1B"/>
<path d="M532.983 208.823C532.983 217.857 529.828 225.786 523.408 232.605C516.987 239.424 509.573 242.812 501.023 242.812C493.581 242.812 486.614 239.39 480.23 232.561L460.622 211.929C458.444 213.667 456.112 215.175 453.659 216.432C450.385 234.238 440.435 243.021 423.727 242.812C418.4 242.69 413.16 241.348 408.365 238.877C398.187 233.574 393.148 224.027 393.148 210.403V126.74C393.148 106.788 403.341 95.9314 423.727 94.1704C433.198 94.9362 440.499 97.9023 445.779 103.108C451.447 108.773 454.329 116.63 454.329 126.638V127.195L475.843 104.387C482.277 97.6018 489.194 94.1801 496.636 94.1801C505.145 94.1801 512.632 97.6067 519.021 104.45C525.409 111.294 528.67 119.14 528.67 128.199C528.67 136.011 525.478 143.354 519.021 150.348L504.156 166.245L523.376 186.659C529.81 193.502 532.952 200.86 532.952 208.823" fill="#1D1D1B"/>
<path d="M224.818 103.461C248.156 115.862 259.81 137.538 259.78 168.489C259.749 199.44 248.095 221.119 224.818 233.526C215.019 238.736 203.387 241.848 189.848 242.812C176.31 241.843 164.687 238.736 154.892 233.526C131.585 221.122 119.934 199.443 119.94 168.489C119.946 137.535 131.597 115.859 154.892 103.461C164.687 98.2562 176.324 95.1979 189.848 94.1704C203.391 95.1979 215.019 98.2562 224.818 103.461ZM200.997 168.44C200.997 158.262 197.295 157.516 189.949 156.905C182.603 157.516 179.005 161.345 179.005 168.44C179.005 175.536 182.612 179.316 189.949 179.927C197.295 179.316 200.997 178.599 200.997 168.44Z" fill="#1D1D1B"/>
<path d="M832.015 97.5435C827.395 95.3273 822.387 94.1713 817.318 94.1509C805.736 94.1509 797.195 100.388 791.619 112.733L780.552 136.859L769.89 112.912C764.318 100.456 755.723 94.1751 744.245 94.1751C739.135 94.218 734.098 95.4748 729.503 97.8537C717.647 104.794 711.687 114.134 711.687 125.727C711.741 131.031 712.943 136.252 715.199 140.984L724.742 162.174C729.503 160.947 734.318 160.075 739.056 160.075C765.814 160.075 790.406 187.846 797.651 198.557L801.208 203.826H795.102C777.091 203.826 762.353 210.509 749.284 216.679L752.604 224.031C758.218 236.536 767.309 242.797 779.877 242.817C793.515 242.817 803.219 236.434 808.892 223.682L846.347 140.427C848.654 135.216 849.858 130.215 849.858 125.402C849.858 113.77 843.853 104.474 831.997 97.5338M1184.48 196.556L1147.06 113.3C1141.35 100.548 1131.65 94.1606 1118.06 94.1606C1105.42 94.1606 1096.35 100.461 1090.77 112.946L1067.16 165.367C1066 152.359 1063.26 140.969 1058.69 131.329C1047.09 106.583 1026.7 94.1961 997.541 94.1703H962.625C948.033 94.1703 937.842 100.408 931.982 112.801C929.101 118.982 927.661 125.161 927.664 131.339V205.682C927.664 221.147 933.419 231.96 945.138 238.193C950.952 241.256 956.77 242.836 962.625 242.836H997.541C1020.98 242.836 1038.65 234.67 1050.8 218.642C1052.86 226.858 1058.5 233.681 1067.7 239.109C1072.27 241.519 1077.3 242.794 1082.4 242.836C1093.83 242.836 1102.37 236.507 1108.09 224.002L1112.45 214.406H1125.22L1129.74 224.264C1135.5 236.613 1144.06 242.836 1155.48 242.836C1160.55 242.824 1165.55 241.678 1170.18 239.473C1182.03 232.523 1187.99 223.295 1187.99 211.604C1187.99 206.806 1186.84 201.8 1184.49 196.58M997.673 195.252C994.267 194.947 992.534 193.163 992.534 189.891V147.037C992.534 143.722 994.267 141.987 997.673 141.706C1001.03 142.981 1002.69 151.884 1002.69 168.45C1002.69 185.016 1001.01 193.924 997.673 195.247M1114.03 176.985L1119.8 149.407L1126.14 176.985H1114.03ZM887.4 94.18C876.693 94.9457 868.306 98.3691 862.238 104.45C855.699 110.877 852.431 119.843 852.434 131.349V205.682C852.434 217.162 855.702 226.144 862.238 232.629C868.289 238.649 876.693 242.075 887.4 242.836C898.107 242.075 906.524 238.649 912.566 232.629C919.096 226.151 922.364 217.168 922.37 205.682V131.339C922.37 119.853 919.102 110.886 912.566 104.44C906.524 98.3578 898.107 94.936 887.4 94.1703" fill="#1D1D1B"/>
<path d="M718.65 230.312C727.629 223.469 737.232 218.007 746.922 213.417C760.948 206.724 775.786 199.885 794.345 199.885C786.411 188.147 763.265 163.7 739.685 163.7C719.622 163.7 698.646 177.586 682.481 190.294C694.92 205.241 704.624 216.378 718.65 230.312Z" fill="#D90912"/>
<path d="M706.161 335C717.834 309.066 727.387 284.823 742.184 264.564C671.154 202.333 594.98 105.652 594.98 39.7619C594.98 23.8842 604.018 13.7305 616.02 13.7305C636.234 13.7305 640.516 29.0411 640.516 43.1739C640.516 57.3067 635.372 98.4547 627.069 115.36C633.503 127.476 656.252 160.889 664.761 170.897C665.536 169.618 666.64 167.888 666.64 167.888C675.618 153.736 706.886 120.352 706.886 75.4913C706.886 27.4611 667.41 0 615.295 0C564.493 0 528.478 31.2366 528.478 79.5722C528.478 167.427 626.293 266.808 706.161 334.99" fill="#D90912"/>
<path d="M613.092 257.88C608.291 264.971 585.956 297.889 585.956 317.441C586.627 323.615 590.279 327.963 595.614 327.963C605.838 327.546 631.442 313.975 646.179 290.236C642.673 287.275 623.174 267.825 613.092 257.88Z" fill="#D90912"/>
<path d="M562.135 193.303C527.712 236.695 528.392 247.058 528.392 264.762C528.392 294.933 561.428 320.862 584.337 325.83C581.36 323.833 578.761 320.678 578.761 313.583C578.761 300.409 594.182 269.585 606.718 249.975C596.918 239.002 573.147 209.913 562.149 193.323" fill="#D90912"/>
</svg>
