<svg width="749" height="303" viewBox="0 0 749 303" fill="none" xmlns="http://www.w3.org/2000/svg">
<g clip-path="url(#clip0_327_19)">
<path d="M217.64 153.86C207.587 154.527 199.73 157.527 194.07 162.86C187.964 168.527 184.907 176.437 184.9 186.59V252.04C184.9 262.18 187.957 270.09 194.07 275.77C199.744 281.103 207.6 284.103 217.64 284.77C227.68 284.103 235.54 281.103 241.22 275.77C247.334 270.097 250.39 262.187 250.39 252.04V186.59C250.39 176.45 247.334 168.54 241.22 162.86C235.54 157.527 227.68 154.527 217.64 153.86ZM487.14 225.86L460.79 170.71C455.457 159.477 446.397 153.86 433.61 153.86C421.83 153.86 413.32 159.367 408.08 170.38L386.01 216.46C384.944 205.02 382.297 195.063 378.07 186.59C367.15 164.757 348.054 153.847 320.78 153.86H288.09C274.444 153.86 264.89 159.313 259.43 170.22C256.798 175.279 255.396 180.887 255.34 186.59V252.04C255.34 265.667 260.797 275.213 271.71 280.68C276.775 283.304 282.386 284.701 288.09 284.76H320.83C342.744 284.76 359.37 277.717 370.71 263.63C372.664 270.817 377.934 276.773 386.52 281.5C390.788 283.629 395.49 284.745 400.26 284.76C410.927 284.76 418.95 279.233 424.33 268.18L428.42 259.72H440.42L444.67 268.39C450.004 279.31 458.024 284.767 468.73 284.76C473.472 284.755 478.16 283.754 482.49 281.82C489.37 278.053 494.12 273.483 496.74 268.11C490.47 259.87 486.35 250.36 486.35 240.34C486.35 235.23 486.29 230.8 487.23 225.85M320.96 242.85C317.78 242.61 316.2 241.03 316.2 238.13V200.42C316.2 197.53 317.78 195.96 320.96 195.71C324.14 196.837 325.73 204.69 325.73 219.27C325.73 233.85 324.14 241.713 320.96 242.86M429.96 226.74L435.34 202.52L441.27 226.74H429.96ZM69.2702 141.3C75.2702 147.3 81.7569 150.3 88.7302 150.3C96.7302 150.3 103.73 147.3 109.73 141.3C115.73 135.3 118.73 128.317 118.73 120.35C118.714 118.291 118.425 116.243 117.87 114.26C123.15 126.38 132.217 135.663 145.07 142.11C154.25 146.69 165.164 149.42 177.81 150.3C190.477 149.427 201.394 146.697 210.56 142.11C226.56 134.11 236.684 121.717 240.93 104.93C242.144 109.284 243.761 113.516 245.76 117.57C256.647 139.397 275.757 150.31 303.09 150.31H339.92C356.72 150.31 366.18 141.563 368.3 124.07C368.89 134.85 373.56 142.48 382.43 146.86C386.926 149.044 391.843 150.221 396.84 150.31C412.46 150.53 421.794 142.787 424.84 127.08C427.143 125.978 429.333 124.655 431.38 123.13L449.71 141.3C455.71 147.3 462.19 150.3 469.19 150.3C477.19 150.3 484.19 147.3 490.19 141.3C493.479 138.098 495.996 134.189 497.55 129.87C493.737 120.083 490.855 109.958 488.94 99.6299L472.09 82.8799L486 68.8199C486.17 68.6499 486.32 68.4699 486.48 68.2999C486.899 58.5828 489.302 49.0541 493.54 40.2999C491.994 35.803 489.411 31.7331 486 28.4199C480 22.4199 473 19.4199 465 19.4199C458.014 19.4199 451.524 22.4199 445.53 28.4199L425.43 48.4799V47.9799C425.43 39.1666 422.764 32.2532 417.43 27.2399C412.51 22.6732 405.634 20.0599 396.8 19.3999C378.74 20.8532 369.224 29.4866 368.25 45.2999C367.25 37.7699 364.78 31.7899 360.67 27.4099C355.65 22.0766 348.72 19.4099 339.88 19.4099H303.09C275.804 19.4099 256.704 30.3166 245.79 52.1299C243.791 56.1838 242.174 60.4155 240.96 64.7699C236.694 47.9899 226.57 35.5966 210.59 27.5899C201.424 22.9966 190.507 20.2699 177.84 19.4099C165.174 20.2832 154.26 23.0099 145.1 27.5899C131.807 34.2566 122.567 43.9399 117.38 56.6399C116.35 51.3892 114.371 46.3704 111.54 41.8299C102.047 26.8766 85.3502 19.4032 61.4502 19.4099H49.0902C40.5463 19.4564 32.1331 21.5117 24.5302 25.4099C8.17022 33.5766 -0.0164518 47.9099 -0.0297852 68.4099V121.74C-0.0297852 133.78 4.72021 142.15 14.2202 146.85C18.7004 149.056 23.6166 150.235 28.6102 150.3C43.5835 150.52 52.8069 143.203 56.2802 128.35L69.2702 141.3ZM303.09 76.6299H339.92C356.394 76.6299 365.817 68.2499 368.19 51.4899V118.18C367.157 110.98 364.664 105.263 360.71 101.03C355.69 95.6966 348.76 93.0299 339.92 93.0299H303.09C298.064 93.0299 295.334 90.2999 294.9 84.8399C295.33 79.3899 298.06 76.6499 303.09 76.6499M177.93 74.6499C184.8 75.2099 188.24 75.8299 188.24 84.7999C188.24 93.7699 184.8 94.4099 177.93 94.9499C171.07 94.4099 167.644 91.0266 167.65 84.7999C167.65 78.5699 171.07 75.2099 177.93 74.6499ZM105.81 87.6499C108.296 86.2975 110.532 84.5285 112.42 82.4199C112.42 83.2399 112.36 84.0399 112.36 84.8599C112.249 93.2382 113.509 101.578 116.09 109.55C114.436 106.351 112.294 103.429 109.74 100.89L99.7402 90.7499C101.05 90.0799 103.07 89.0499 105.8 87.6299M48.7002 64.3599C49.0702 59.6599 51.4402 57.3599 55.7702 57.3599H62.8502C67.2002 57.3599 69.5502 59.7099 69.9302 64.3599C69.5502 69.0699 67.2002 71.4299 62.8502 71.4299H55.7702C51.4402 71.4299 49.0702 69.0699 48.7002 64.3599ZM165.75 156.8C161.42 154.866 156.732 153.864 151.99 153.86C141.177 153.86 133.157 159.31 127.93 170.21L117.61 191.45L107.61 170.35C102.37 159.357 94.3469 153.86 83.5402 153.86C78.768 153.881 74.0641 154.997 69.7902 157.12C58.6569 163.233 53.0902 171.413 53.0902 181.66C53.1587 186.326 54.2799 190.917 56.3702 195.09L91.3702 268.25C96.5969 279.257 105.11 284.76 116.91 284.76C129.677 284.76 138.734 279.143 144.08 267.91L179.08 194.61C181.151 190.491 182.269 185.959 182.35 181.35C182.35 171.09 176.787 162.907 165.66 156.8" fill="#1D1D1B"/>
<path d="M675.54 206.23C684.053 200.222 693.153 195.093 702.7 190.92C716.16 184.92 730.4 178.71 748.23 178.71C740.62 168.12 718.38 145.98 695.71 145.98C676.44 145.98 656.31 158.54 640.79 170.04C651.738 182.692 663.337 194.765 675.54 206.21" fill="#E20714"/>
<path d="M667.09 302.72C678.31 279.25 687.52 257.39 701.69 239.1C633.49 182.87 560.35 95.51 560.35 35.98C560.35 21.64 568.99 12.43 580.53 12.43C599.95 12.43 604.07 26.28 604.07 39.06C604.07 51.84 599.13 89.06 591.15 104.26C597.33 115.19 619.15 145.42 627.35 154.47L629.17 151.71C637.78 138.97 667.82 108.79 667.82 68.23C667.82 24.85 629.91 0.0100098 579.82 0.0100098C531.07 0.0100098 496.49 28.24 496.49 71.91C496.49 151.33 590.42 241.12 667.09 302.73" fill="#E20714"/>
<path d="M576.43 231.16C571.83 237.55 550.34 267.28 550.34 284.94C551.01 290.56 554.56 294.45 559.62 294.45C569.47 294.08 594.04 281.81 608.2 260.36C604.84 257.69 586.1 240.11 576.43 231.16Z" fill="#E20714"/>
<path d="M528.79 174.67C495.69 213.91 496.37 223.26 496.37 239.25C496.37 266.5 528.1 289.95 550.08 294.43C547.25 292.62 544.72 289.75 544.72 283.34C544.72 271.43 559.58 243.58 571.59 225.89C562.2 215.89 539.36 189.69 528.79 174.67Z" fill="#E20714"/>
</g>
<defs>
<clipPath id="clip0_327_19">
<rect width="748.23" height="302.72" fill="white"/>
</clipPath>
</defs>
</svg>
