<svg width="692" height="183" viewBox="0 0 692 183" fill="none" xmlns="http://www.w3.org/2000/svg">
<g clip-path="url(#clip0_327_26)">
<path d="M73.835 114.073C73.835 119.015 71.9615 123.346 68.2146 127.065C64.4961 130.772 60.1613 132.641 55.1996 132.641C50.8631 132.641 46.8249 130.774 43.085 127.041L35.029 119.032C32.8616 128.21 27.1271 132.747 17.8253 132.641C14.72 132.59 11.6642 131.856 8.87683 130.491C2.94304 127.579 0.00537109 122.379 0.00537109 114.907V81.8656C0.00537109 69.1573 5.09627 60.2703 15.2781 55.2046C20.2982 52.6973 25.4059 51.4424 30.5508 51.4424H38.1925C53.0668 51.4424 63.454 56.0818 69.3541 65.3607C71.7995 69.1484 73.2577 73.8135 73.7287 79.3557C73.7287 86.0461 71.0859 90.87 65.7843 93.7717C64.0923 94.6375 62.8333 95.2782 62.0232 95.6965L68.2199 101.966C71.9704 105.761 73.8438 109.797 73.8403 114.073M30.2958 79.3292C30.5163 82.2574 31.9878 83.7057 34.6864 83.7057H39.0929C41.7889 83.7057 43.2603 82.2574 43.4994 79.3292C43.2603 76.4275 41.7915 74.9766 39.0929 74.9766H34.6944C31.9957 74.9766 30.5242 76.4275 30.3038 79.3292" fill="#1D1D1B"/>
<path d="M188.497 132.641C171.544 132.641 159.665 125.875 152.86 112.344C150.005 106.652 148.329 99.9009 147.763 92.0402C148.329 84.1822 150.005 77.4336 152.86 71.7466C159.654 58.2246 171.533 51.4565 188.497 51.4424H211.433C216.918 51.4424 221.226 53.0892 224.36 56.4357C227.213 59.4725 228.833 63.7404 229.255 69.2076C228.273 81.0334 222.332 86.9463 211.433 86.9463H188.497C185.39 86.9463 183.684 88.646 183.405 92.019C183.671 95.3973 185.39 97.0971 188.497 97.0971H211.433C216.922 97.0971 221.231 98.7606 224.36 102.088C227.213 105.127 228.833 109.392 229.255 114.857C228.273 126.706 222.332 132.635 211.433 132.646L188.497 132.641Z" fill="#1D1D1B"/>
<path d="M310.458 114.073C310.458 119.008 308.62 123.34 304.88 127.065C301.141 130.79 296.822 132.641 291.842 132.641C287.507 132.641 283.448 130.771 279.73 127.041L268.308 115.77C267.04 116.72 265.681 117.543 264.252 118.23C262.345 127.957 256.55 132.755 246.818 132.641C243.714 132.574 240.662 131.841 237.869 130.491C231.941 127.594 229.006 122.379 229.006 114.936V69.2341C229.006 58.3349 234.943 52.4043 246.818 51.4424C252.334 51.8607 256.587 53.481 259.663 56.3245C262.964 59.4195 264.643 63.7112 264.643 69.1784V69.4829L277.174 57.0235C280.922 53.3169 284.952 51.4477 289.286 51.4477C294.243 51.4477 298.604 53.3195 302.325 57.0579C306.046 60.7963 307.946 65.0827 307.946 70.031C307.946 74.2989 306.086 78.3099 302.325 82.1304L293.666 90.8144L304.862 101.966C308.61 105.704 310.44 109.723 310.44 114.073" fill="#1D1D1B"/>
<path d="M130.955 56.5178C144.549 63.292 151.337 75.1328 151.32 92.0402C151.302 108.948 144.514 120.79 130.955 127.568C125.247 130.414 118.471 132.114 110.585 132.641C102.699 132.111 95.9288 130.414 90.2234 127.568C76.6471 120.792 69.8607 108.949 69.8643 92.0402C69.8678 75.1311 76.6542 63.2903 90.2234 56.5178C95.9288 53.6743 102.707 52.0037 110.585 51.4424C118.474 52.0037 125.247 53.6743 130.955 56.5178ZM117.08 92.0137C117.08 86.4538 114.923 86.0461 110.644 85.7125C106.365 86.0461 104.269 88.1377 104.269 92.0137C104.269 95.8898 106.37 97.9549 110.644 98.2885C114.923 97.9549 117.08 97.563 117.08 92.0137Z" fill="#1D1D1B"/>
<path d="M484.642 53.2849C481.95 52.0743 479.033 51.4428 476.081 51.4316C469.334 51.4316 464.359 54.8391 461.111 61.5824L454.665 74.762L448.455 61.6804C445.209 54.8761 440.202 51.4449 433.516 51.4449C430.54 51.4683 427.606 52.1549 424.929 53.4544C418.023 57.2457 414.552 62.3476 414.552 68.6806C414.583 71.5783 415.283 74.4301 416.597 77.0151L422.156 88.5903C424.929 87.9204 427.734 87.4439 430.494 87.4439C446.08 87.4439 460.404 102.614 464.625 108.466L466.697 111.343H463.14C452.649 111.343 444.064 114.994 436.451 118.365L438.385 122.381C441.656 129.212 446.951 132.633 454.271 132.643C462.216 132.643 467.868 129.156 471.172 122.191L492.99 76.7106C494.334 73.8645 495.035 71.1322 495.035 68.5032C495.035 62.149 491.537 57.071 484.631 53.2796M689.949 107.372L668.153 61.8922C664.828 54.9264 659.175 51.4369 651.26 51.4369C643.897 51.4369 638.614 54.8788 635.366 61.6989L621.61 90.335C620.935 83.2289 619.342 77.0072 616.68 71.7411C609.919 58.2227 598.046 51.4563 581.059 51.4422H560.721C552.221 51.4422 546.285 54.8496 542.872 61.6195C541.193 64.996 540.355 68.3717 540.356 71.7464V112.358C540.356 120.806 543.708 126.713 550.535 130.117C553.921 131.791 557.31 132.654 560.721 132.654H581.059C594.711 132.654 605.004 128.193 612.08 119.437C613.282 123.926 616.565 127.653 621.929 130.618C624.591 131.934 627.518 132.631 630.489 132.654C637.146 132.654 642.123 129.196 645.454 122.365L647.993 117.123H655.43L658.063 122.508C661.42 129.254 666.403 132.654 673.056 132.654C676.008 132.647 678.924 132.021 681.617 130.816C688.523 127.02 691.995 121.979 691.995 115.593C691.995 112.972 691.325 110.237 689.957 107.385M581.136 106.66C579.152 106.493 578.142 105.519 578.142 103.732V80.3219C578.142 78.511 579.152 77.5631 581.136 77.4096C583.093 78.1059 584.058 82.9695 584.058 92.0189C584.058 101.068 583.08 105.934 581.136 106.657M648.912 96.6812L652.275 81.6166L655.967 96.6812H648.912ZM516.903 51.4475C510.666 51.8658 505.781 53.7359 502.246 57.0577C498.437 60.5684 496.534 65.4664 496.536 71.7517V112.358C496.536 118.629 498.439 123.536 502.246 127.078C505.771 130.366 510.666 132.238 516.903 132.654C523.139 132.238 528.043 130.366 531.562 127.078C535.366 123.539 537.269 118.632 537.273 112.358V71.7464C537.273 65.4717 535.369 60.5737 531.562 57.0524C528.043 53.7297 523.139 51.8605 516.903 51.4422" fill="#1D1D1B"/>
<path d="M418.608 125.812C423.838 122.074 429.431 119.09 435.076 116.583C443.246 112.927 451.889 109.191 462.699 109.191C458.078 102.779 444.595 89.4243 430.86 89.4243C419.173 89.4243 406.955 97.0096 397.539 103.952C404.785 112.117 410.437 118.201 418.608 125.812Z" fill="#D90912"/>
<path d="M411.333 183C418.132 168.833 423.697 155.59 432.316 144.523C390.942 110.528 346.571 57.7144 346.571 21.7207C346.571 13.0472 351.836 7.50057 358.826 7.50057C370.601 7.50057 373.095 15.8642 373.095 23.5846C373.095 31.3049 370.099 53.7827 365.262 63.0175C369.01 69.6364 382.261 87.8887 387.218 93.3559C387.669 92.657 388.312 91.7118 388.312 91.7118C393.542 83.9809 411.755 65.7444 411.755 41.2385C411.755 15.0011 388.761 0 358.404 0C328.812 0 307.834 17.0636 307.834 43.4678C307.834 91.4603 364.811 145.749 411.333 182.995" fill="#D90912"/>
<path d="M357.121 140.872C354.324 144.745 341.314 162.728 341.314 173.408C341.705 176.781 343.832 179.156 346.94 179.156C352.895 178.928 367.809 171.515 376.394 158.547C374.351 156.929 362.994 146.305 357.121 140.872Z" fill="#D90912"/>
<path d="M327.439 105.596C307.388 129.299 307.784 134.96 307.784 144.631C307.784 161.113 327.027 175.277 340.372 177.991C338.637 176.9 337.123 175.176 337.123 171.3C337.123 164.104 346.106 147.266 353.408 136.554C347.7 130.56 333.854 114.669 327.447 105.606" fill="#D90912"/>
</g>
<defs>
<clipPath id="clip0_327_26">
<rect width="692" height="183" fill="white"/>
</clipPath>
</defs>
</svg>
