<svg width="333" height="395" viewBox="0 0 333 395" fill="none" xmlns="http://www.w3.org/2000/svg">
<g clip-path="url(#clip0_327_14)">
<path d="M238.229 271.56C249.475 263.491 261.491 257.052 273.644 251.637C291.204 243.757 309.783 235.681 333 235.681C323.067 221.842 294.087 193.019 264.565 193.019C239.427 193.019 213.156 209.389 192.941 224.374C208.515 242.001 220.666 255.131 238.229 271.56Z" fill="#D90912"/>
<path d="M222.59 394.998C237.21 364.421 249.167 335.832 267.694 311.944C178.764 238.57 83.3903 124.572 83.3903 46.8842C83.3903 28.1589 94.7042 16.1902 109.732 16.1902C135.038 16.1902 140.398 34.2378 140.398 50.9075C140.398 67.5772 133.959 116.089 123.562 136.012C131.619 150.275 160.116 189.7 170.755 201.498C171.729 199.989 173.108 197.949 173.108 197.949C184.354 181.264 223.492 141.902 223.492 89.0042C223.492 32.3736 174.063 -0.00439453 108.818 -0.00439453C45.2086 -0.00439453 0.117188 36.827 0.117188 93.82C0.117188 197.407 122.589 314.585 222.583 394.993" fill="#D90912"/>
<path d="M106.068 304.066C100.053 312.426 72.0898 351.241 72.0898 374.293C72.9333 381.575 77.5039 386.699 84.1798 386.699C96.9827 386.208 129.037 370.207 147.493 342.219C143.104 338.725 118.688 315.794 106.068 304.066Z" fill="#D90912"/>
<path d="M42.2643 227.92C-0.834303 279.084 0.00018326 291.303 0.00018326 312.181C0.00018326 347.753 41.3646 378.326 70.0474 384.164C66.3159 381.809 63.0612 378.085 63.0612 369.721C63.0612 354.186 82.3713 317.845 98.0668 294.721C85.7992 281.784 56.0344 247.483 42.2643 227.92Z" fill="#D90912"/>
</g>
<defs>
<clipPath id="clip0_327_14">
<rect width="333" height="395" fill="white"/>
</clipPath>
</defs>
</svg>
