<svg width="28" height="27" viewBox="0 0 28 27" fill="none" xmlns="http://www.w3.org/2000/svg">
<g clip-path="url(#clip0_302_1238)">
<path d="M9.74158 7.875L7.40825 12.375L12.8333 12.375L12.8333 20.25L4.66658 20.25V12.15L6.88325 7.875H9.74158ZM20.2416 7.875L17.9083 12.375H23.3333V20.25H15.1666L15.1666 12.15L17.3833 7.875H20.2416Z" fill="#D90912"/>
<path d="M9.74158 7.875L7.40825 12.375L12.8333 12.375L12.8333 20.25L4.66658 20.25V12.15L6.88325 7.875H9.74158ZM20.2416 7.875L17.9083 12.375H23.3333V20.25H15.1666L15.1666 12.15L17.3833 7.875H20.2416Z" fill="#D90912"/>
</g>
<defs>
<clipPath id="clip0_302_1238">
<rect width="28" height="27" fill="white" transform="matrix(-1 0 0 -1 28 27)"/>
</clipPath>
</defs>
</svg>
